# xmcd
#
# Track frame offsets: 
#        150
#        12622
#        23679
#        34121
#        45221
#        55733
#        67000
#        79122
#        88942
#        99798
#        105554
#        117997
#
# Disc length: 1754 seconds
#
# Revision: 0
# Processed by: cddbd v1.5.2PL0 Copyright (c) Steve Scherf et al.
# Submitted via: ExactAudioCopy v1.3
#
DISCID=8d06d80c
DTITLE=The Velvet Candles - Today
DYEAR=2018
DGENRE=Blues
TTITLE0=Oh What A Night For Love
TTITLE1=Out Of My Mind
TTITLE2=My Heart's Desire
TTITLE3=Aggravation
TTITLE4=Amor Bajo Cero
TTITLE5=I'm In Love
TTITLE6=People Will Say We're In Love
TTITLE7=Cry Cry Cry
TTITLE8=Today
TTITLE9=(It's A) Happy Holiday
TTITLE10=Because I Love You
TTITLE11=Please Say You Want Me
EXTD=
EXTT0=
EXTT1=
EXTT2=
EXTT3=
EXTT4=
EXTT5=
EXTT6=
EXTT7=
EXTT8=
EXTT9=
EXTT10=
EXTT11=
PLAYORDER=
